
<svg xmlns="http://www.w3.org/2000/svg" viewBox="0 140 1565 687" style="background-color: rgb(34, 34, 34); width: 100%; height: 100%;"><polyline id="drawPolyline" points="237,381,252,448,264.5,448,238.875,389.375,264.5,448,277,448,240.75,397.75,277,448,289.5,448,242.625,406.125,289.5,448,302,448,244.5,414.5,302,448,314.5,448,246.375,422.875,314.5,448,327,448,248.25,431.25,327,448,339.5,448,250.125,439.625,339.5,448,352,448,252,448,352,448,364.5,448,264.5,448,364.5,448,377,448,277,448,377,448,389.5,448,289.5,448,389.5,448,402,448,302,448,402,448,414.5,448,314.5,448,414.5,448,427,448,327,448,427,448,439.5,448,339.5,448,439.5,448,452,448,352,448,452,448,452,410.5,364.5,448,452,435.5,452,398,377,448,452,423,452,385.5,389.5,448,452,410.5,452,373,402,448,452,398,452,360.5,414.5,448,452,385.5,452,348,427,448,452,373,452,335.5,439.5,448,452,360.5,452,323,452,448,452,348,477,348,452,435.5,464.5,348,489.5,348,452,423,477,348,502,348,452,410.5,489.5,348,514.5,348,452,398,502,348,527,348,452,385.5,514.5,348,539.5,348,452,373,527,348,552,348,452,360.5,539.5,348,564.5,348,452,348,552,348,552,310.5,464.5,348,552,335.5,552,298,477,348,552,323,552,285.5,489.5,348,552,310.5,552,273,502,348,552,298,552,260.5,514.5,348,552,285.5,552,248,527,348,552,273,552,235.5,539.5,348,552,260.5,552,223,552,348,552,248,552,260.5,552,335.5,552,260.5,552,273,552,323,552,273,552,285.5,552,310.5,552,285.5,552,298,552,298,552,298,552,310.5,552,285.5,552,310.5,552,323,552,273,552,323,552,335.5,552,260.5,552,335.5,552,348,552,248,552,348,577,348,552,260.5,564.5,348,589.5,348,552,273,577,348,602,348,552,285.5,589.5,348,614.5,348,552,298,602,348,627,348,552,310.5,614.5,348,639.5,348,552,323,627,348,652,348,552,335.5,639.5,348,664.5,348,552,348,652,348,652,385.5,564.5,348,652,360.5,652,398,577,348,652,373,652,410.5,589.5,348,652,385.5,652,423,602,348,652,398,652,435.5,614.5,348,652,410.5,652,448,627,348,652,423,652,460.5,639.5,348,652,435.5,652,473,652,348,652,448,702,448,652,360.5,664.5,448,714.5,448,652,373,677,448,727,448,652,385.5,689.5,448,739.5,448,652,398,702,448,752,448,652,410.5,714.5,448,764.5,448,652,423,727,448,777,448,652,435.5,739.5,448,789.5,448,652,448,752,448,752,485.5,664.5,448,752,460.5,752,498,677,448,752,473,752,510.5,689.5,448,752,485.5,752,523,702,448,752,498,752,535.5,714.5,448,752,510.5,752,548,727,448,752,523,752,560.5,739.5,448,752,535.5,752,573,752,448,752,548,752,498,752,460.5,752,535.5,752,485.5,752,473,752,523,752,473,752,485.5,752,510.5,752,460.5,752,498,752,498,752,448,752,510.5,752,485.5,752,435.5,752,523,752,473,752,423,752,535.5,752,460.5,752,410.5,752,548,752,448,802,448,752,535.5,764.5,448,814.5,448,752,523,777,448,827,448,752,510.5,789.5,448,839.5,448,752,498,802,448,852,448,752,485.5,814.5,448,864.5,448,752,473,827,448,877,448,752,460.5,839.5,448,889.5,448,752,448,852,448,852,410.5,764.5,448,852,435.5,852,398,777,448,852,423,852,385.5,789.5,448,852,410.5,852,373,802,448,852,398,852,360.5,814.5,448,852,385.5,852,348,827,448,852,373,852,335.5,839.5,448,852,360.5,852,323,852,448,852,348,877,348,852,435.5,864.5,348,889.5,348,852,423,877,348,902,348,852,410.5,889.5,348,914.5,348,852,398,902,348,927,348,852,385.5,914.5,348,939.5,348,852,373,927,348,952,348,852,360.5,939.5,348,964.5,348,852,348,952,348,952,310.5,864.5,348,952,335.5,952,298,877,348,952,323,952,285.5,889.5,348,952,310.5,952,273,902,348,952,298,952,260.5,914.5,348,952,285.5,952,248,927,348,952,273,952,235.5,939.5,348,952,260.5,952,223,952,348,952,248,952,298,952,335.5,952,260.5,952,310.5,952,323,952,273,952,323,952,310.5,952,285.5,952,335.5,952,298,952,298,952,348,952,285.5,952,310.5,952,360.5,952,273,952,323,952,373,952,260.5,952,335.5,952,385.5,952,248,952,348,1002,348,952,260.5,964.5,348,1014.5,348,952,273,977,348,1027,348,952,285.5,989.5,348,1039.5,348,952,298,1002,348,1052,348,952,310.5,1014.5,348,1064.5,348,952,323,1027,348,1077,348,952,335.5,1039.5,348,1089.5,348,952,348,1052,348,1014.5,348,964.5,348,1039.5,348,1002,348,977,348,1027,348,989.5,348,989.5,348,1014.5,348,977,348,1002,348,1002,348,964.5,348,1014.5,348,989.5,348,952,348,1027,348,977,348,939.5,348,1039.5,348,964.5,348,927,348,1052,348,952,348,1002,348,1039.5,348,964.5,348,1014.5,348,1027,348,977,348,1027,348,1014.5,348,989.5,348,1039.5,348,1002,348,1002,348,1052,348,989.5,348,1014.5,348,1064.5,348,977,348,1027,348,1077,348,964.5,348,1039.5,348,1089.5,348,952,348,1052,348,1052,360.5,964.5,348,1052,360.5,1052,373,977,348,1052,373,1052,385.5,989.5,348,1052,385.5,1052,398,1002,348,1052,398,1052,410.5,1014.5,348,1052,410.5,1052,423,1027,348,1052,423,1052,435.5,1039.5,348,1052,435.5,1052,448,1052,348,1052,448,1102,448,1052,360.5,1064.5,448,1114.5,448,1052,373,1077,448,1127,448,1052,385.5,1089.5,448,1139.5,448,1052,398,1102,448,1152,448,1052,410.5,1114.5,448,1164.5,448,1052,423,1127,448,1177,448,1052,435.5,1139.5,448,1189.5,448,1052,448,1152,448,1139.5,448,1064.5,448,1139.5,448,1127,448,1077,448,1127,448,1114.5,448,1089.5,448,1114.5,448,1102,448,1102,448,1102,448,1089.5,448,1114.5,448,1089.5,448,1077,448,1127,448,1077,448,1064.5,448,1139.5,448,1064.5,448,1052,448,1152,448,1052,448,1052,485.5,1139.5,448,1052,460.5,1052,498,1127,448,1052,473,1052,510.5,1114.5,448,1052,485.5,1052,523,1102,448,1052,498,1052,535.5,1089.5,448,1052,510.5,1052,548,1077,448,1052,523,1052,560.5,1064.5,448,1052,535.5,1052,573,1052,448,1052,548,1027,548,1052,460.5,1039.5,548,1014.5,548,1052,473,1027,548,1002,548,1052,485.5,1014.5,548,989.5,548,1052,498,1002,548,977,548,1052,510.5,989.5,548,964.5,548,1052,523,977,548,952,548,1052,535.5,964.5,548,939.5,548,1052,548,952,548,964.5,548,1039.5,548,964.5,548,977,548,1027,548,977,548,989.5,548,1014.5,548,989.5,548,1002,548,1002,548,1002,548,1014.5,548,989.5,548,1014.5,548,1027,548,977,548,1027,548,1039.5,548,964.5,548,1039.5,548,1052,548,952,548,1052,548,1052,560.5,964.5,548,1052,560.5,1052,573,977,548,1052,573,1052,585.5,989.5,548,1052,585.5,1052,598,1002,548,1052,598,1052,610.5,1014.5,548,1052,610.5,1052,623,1027,548,1052,623,1052,635.5,1039.5,548,1052,635.5,1052,648,1052,548,1052,648,1064.5,648,1052,560.5,1064.5,648,1077,648,1052,573,1077,648,1089.5,648,1052,585.5,1089.5,648,1102,648,1052,598,1102,648,1114.5,648,1052,610.5,1114.5,648,1127,648,1052,623,1127,648,1139.5,648,1052,635.5,1139.5,648,1152,648,1052,648,1152,648,1127,648,1064.5,648,1139.5,648,1114.5,648,1077,648,1127,648,1102,648,1089.5,648,1114.5,648,1089.5,648,1102,648,1102,648,1077,648,1114.5,648,1089.5,648,1064.5,648,1127,648,1077,648,1052,648,1139.5,648,1064.5,648,1039.5,648,1152,648,1052,648,1052,673,1139.5,648,1052,660.5,1052,685.5,1127,648,1052,673,1052,698,1114.5,648,1052,685.5,1052,710.5,1102,648,1052,698,1052,723,1089.5,648,1052,710.5,1052,735.5,1077,648,1052,723,1052,748,1064.5,648,1052,735.5,1052,760.5,1052,648,1052,748,1052,710.5,1052,660.5,1052,735.5,1052,698,1052,673,1052,723,1052,685.5,1052,685.5,1052,710.5,1052,673,1052,698,1052,698,1052,660.5,1052,710.5,1052,685.5,1052,648,1052,723,1052,673,1052,635.5,1052,735.5,1052,660.5,1052,623,1052,748,1052,648,1052,685.5,1052,735.5,1052,660.5,1052,698,1052,723,1052,673,1052,710.5,1052,710.5,1052,685.5,1052,723,1052,698,1052,698,1052,735.5,1052,685.5,1052,710.5,1052,748,1052,673,1052,723,1052,760.5,1052,660.5,1052,735.5,1052,773,1052,648,1052,748,1052,735.5,1052,660.5,1052,735.5,1052,723,1052,673,1052,723,1052,710.5,1052,685.5,1052,710.5,1052,698,1052,698,1052,698,1052,685.5,1052,710.5,1052,685.5,1052,673,1052,723,1052,673,1052,660.5,1052,735.5,1052,660.5,1052,648,1052,748,1052,648,1027,648,1052,735.5,1039.5,648,1014.5,648,1052,723,1027,648,1002,648,1052,710.5,1014.5,648,989.5,648,1052,698,1002,648,977,648,1052,685.5,989.5,648,964.5,648,1052,673,977,648,952,648,1052,660.5,964.5,648,939.5,648,1052,648,952,648,952,610.5,1039.5,648,952,635.5,952,598,1027,648,952,623,952,585.5,1014.5,648,952,610.5,952,573,1002,648,952,598,952,560.5,989.5,648,952,585.5,952,548,977,648,952,573,952,535.5,964.5,648,952,560.5,952,523,952,648,952,548,952,598,952,635.5,952,560.5,952,610.5,952,623,952,573,952,623,952,610.5,952,585.5,952,635.5,952,598,952,598,952,648,952,585.5,952,610.5,952,660.5,952,573,952,623,952,673,952,560.5,952,635.5,952,685.5,952,548,952,648,902,648,952,560.5,939.5,648,889.5,648,952,573,927,648,877,648,952,585.5,914.5,648,864.5,648,952,598,902,648,852,648,952,610.5,889.5,648,839.5,648,952,623,877,648,827,648,952,635.5,864.5,648,814.5,648,952,648,852,648,852,698,939.5,648,852,660.5,852,710.5,927,648,852,673,852,723,914.5,648,852,685.5,852,735.5,902,648,852,698,852,748,889.5,648,852,710.5,852,760.5,877,648,852,723,852,773,864.5,648,852,735.5,852,785.5,852,648,852,748,852,723,852,660.5,852,735.5,852,710.5,852,673,852,723,852,698,852,685.5,852,710.5,852,685.5,852,698,852,698,852,673,852,710.5,852,685.5,852,660.5,852,723,852,673,852,648,852,735.5,852,660.5,852,635.5,852,748,852,648,827,648,852,735.5,839.5,648,814.5,648,852,723,827,648,802,648,852,710.5,814.5,648,789.5,648,852,698,802,648,777,648,852,685.5,789.5,648,764.5,648,852,673,777,648,752,648,852,660.5,764.5,648,739.5,648,852,648,752,648,752,635.5,839.5,648,752,635.5,752,623,827,648,752,623,752,610.5,814.5,648,752,610.5,752,598,802,648,752,598,752,585.5,789.5,648,752,585.5,752,573,777,648,752,573,752,560.5,764.5,648,752,560.5,752,548,752,648,752,548,752,585.5,752,635.5,752,560.5,752,598,752,623,752,573,752,610.5,752,610.5,752,585.5,752,623,752,598,752,598,752,635.5,752,585.5,752,610.5,752,648,752,573,752,623,752,660.5,752,560.5,752,635.5,752,673,752,548,752,648,702,648,752,560.5,739.5,648,689.5,648,752,573,727,648,677,648,752,585.5,714.5,648,664.5,648,752,598,702,648,652,648,752,610.5,689.5,648,639.5,648,752,623,677,648,627,648,752,635.5,664.5,648,614.5,648,752,648,652,648,652,685.5,739.5,648,652,660.5,652,698,727,648,652,673,652,710.5,714.5,648,652,685.5,652,723,702,648,652,698,652,735.5,689.5,648,652,710.5,652,748,677,648,652,723,652,760.5,664.5,648,652,735.5,652,773,652,648,652,748,652,698,652,660.5,652,735.5,652,685.5,652,673,652,723,652,673,652,685.5,652,710.5,652,660.5,652,698,652,698,652,648,652,710.5,652,685.5,652,635.5,652,723,652,673,652,623,652,735.5,652,660.5,652,610.5,652,748,652,648,639.5,648,652,735.5,639.5,648,627,648,652,723,627,648,614.5,648,652,710.5,614.5,648,602,648,652,698,602,648,589.5,648,652,685.5,589.5,648,577,648,652,673,577,648,564.5,648,652,660.5,564.5,648,552,648,652,648,552,648,552,598,639.5,648,552,635.5,552,585.5,627,648,552,623,552,573,614.5,648,552,610.5,552,560.5,602,648,552,598,552,548,589.5,648,552,585.5,552,535.5,577,648,552,573,552,523,564.5,648,552,560.5,552,510.5,552,648,552,548,539.5,548,552,635.5,539.5,548,527,548,552,623,527,548,514.5,548,552,610.5,514.5,548,502,548,552,598,502,548,489.5,548,552,585.5,489.5,548,477,548,552,573,477,548,464.5,548,552,560.5,464.5,548,452,548,552,548,452,548,452,535.5,539.5,548,452,535.5,452,523,527,548,452,523,452,510.5,514.5,548,452,510.5,452,498,502,548,452,498,452,485.5,489.5,548,452,485.5,452,473,477,548,452,473,452,460.5,464.5,548,452,460.5,452,448,452,548,452,448,427,448,452,535.5,439.5,448,414.5,448,452,523,427,448,402,448,452,510.5,414.5,448,389.5,448,452,498,402,448,377,448,452,485.5,389.5,448,364.5,448,452,473,377,448,352,448,452,460.5,364.5,448,339.5,448,452,448,352,448,452.875,392.875,439.5,448,385.625,429.625,486.5,374.5,427,448,419.25,411.25,520.125,356.125,414.5,448,452.875,392.875,553.75,337.75,402,448,486.5,374.5,587.375,319.375,389.5,448,520.125,356.125,621,301,377,448,553.75,337.75,654.625,282.625,364.5,448,587.375,319.375,688.25,264.25" style="fill: none; stroke: white; stroke-width: 2;"/></svg>